<?xml version="1.0" encoding="utf-8"?>
<!-- Generator: Adobe Illustrator 16.0.0, SVG Export Plug-In . SVG Version: 6.00 Build 0)  -->
<!DOCTYPE svg PUBLIC "-//W3C//DTD SVG 1.1//EN" "http://www.w3.org/Graphics/SVG/1.1/DTD/svg11.dtd">
<svg version="1.1" id="Layer_1" xmlns="http://www.w3.org/2000/svg" xmlns:xlink="http://www.w3.org/1999/xlink" x="0px" y="0px"
	 width="100%" height="100%" viewBox="0 0 600 600" enable-background="new 0 0 1600 600" xml:space="preserve">
<g>
	<defs>
		<rect id="SVGID_1_" width="600" height="600"/>
	</defs>
	<clipPath id="SVGID_2_">
		<use xlink:href="#SVGID_1_"  overflow="visible"/>
	</clipPath>
	<g clip-path="url(#SVGID_2_)">
		<path fill="#FFFFFF" d="M311.36,299.019l-13.312,55.188c-1.813,7.657-3.576,13.364-5.289,17.127
			c-1.712,3.761-4.045,7.254-7.001,10.478c-5.374,5.844-11.25,8.766-17.631,8.766c-3.089,0-5.844-0.539-8.262-1.612l4.936-7.254
			c2.822,2.282,5.879,3.426,9.169,3.426c4.971,0,8.699-2.62,11.183-7.858c1.813-3.896,3.728-10.345,5.743-19.344l12.67-58.966
			h-9.945l1.499-6.53c3.258,0.008,6.576,0.024,9.919-0.006l9.229-43.105c1.612-7.32,3.257-13.164,4.938-17.53
			c1.678-4.365,3.692-8.126,6.045-11.284c5.775-7.723,12.961-11.586,21.56-11.586c2.887,0,5.541,0.471,7.959,1.41l-3.627,9.168
			c-2.687-3.761-6.112-5.641-10.276-5.641c-3.157,0-5.727,1.226-7.707,3.677c-1.982,2.452-3.678,6.498-5.088,12.14l-15.098,62.561
			c11.769-0.478,23.551-2.039,33.966-7.03c18.57-8.941,29.23-26.135,29.23-46.768c0-42.642-36.108-54.678-72.904-54.678h-87.347
			v108.668h56.074l9.23-43.107c1.613-7.32,3.257-13.164,4.937-17.53c1.679-4.365,3.693-8.126,6.045-11.284
			c5.776-7.723,12.962-11.586,21.56-11.586c2.887,0,5.541,0.471,7.959,1.41l-3.627,9.168c-2.688-3.761-6.112-5.641-10.276-5.641
			c-3.157,0-5.727,1.226-7.707,3.677c-1.982,2.452-3.678,6.498-5.088,12.14l-15.144,62.753h10.109l-1.5,6.534h-10.165
			l-13.323,55.238c-1.814,7.657-3.577,13.364-5.289,17.127c-1.713,3.761-4.046,7.254-7.002,10.478
			c-5.373,5.844-11.25,8.766-17.631,8.766c-3.089,0-5.844-0.539-8.262-1.612l4.937-7.254c2.821,2.282,5.878,3.426,9.168,3.426
			c4.971,0,8.699-2.62,11.183-7.858c1.813-3.896,3.728-10.345,5.743-19.344l12.67-58.966h-54.601V415.89h86.316
			c39.547,0,81.501-12.38,81.501-60.523C383.736,312.887,347.865,299.876,311.36,299.019z"/>
		<path fill="#FFFFFF" d="M0,0v600h600V0H0z M323.9,421.048c-8.254,0.688-19.945,1.376-27.512,1.376h-87.347V177.577h98.008
			c38.859,0,76.343,15.474,76.343,60.524c0,30.262-21.321,53.303-52.614,57.085c29.574,2.407,60.181,20.978,60.181,60.868
			C390.959,395.257,360.009,417.952,323.9,421.048z"/>
	</g>
</g>
</svg>
